HIERARCHY
ROOT Hips
{
	OFFSET 0.000000 0.000000 0.000000 
	CHANNELS 6 Xposition Yposition Zposition Yrotation Zrotation Xrotation 
	JOINT Lumbar
	{
		OFFSET 0.000000 0.000000 0.000000 
		CHANNELS 3 Zrotation Xrotation Yrotation
		JOINT Neck
		{
			OFFSET 0.000000 0.445665 0.000000 
			CHANNELS 3 Zrotation Xrotation Yrotation
			End Site
			{
				OFFSET 0.000000 0.227535 0.000000 
			}
		}
		JOINT RightShoulder
		{
			OFFSET 0.019635 0.377685 0.194865 
			CHANNELS 3 Zrotation Xrotation Yrotation
			JOINT RightElbow
			{
				OFFSET 0.000000 -0.243375 0.000000 
				CHANNELS 2 Zrotation Yrotation
				JOINT RightWrist
				{
					OFFSET 0.000000 -0.264825 0.000000 
					CHANNELS 2 Zrotation Xrotation
					End Site
					{
						OFFSET 0.006600 -0.176220 0.000990 
					}
				}
			}
		}
		JOINT LeftShoulder
		{
			OFFSET 0.019635 0.377685 -0.194865 
			CHANNELS 3 Zrotation Xrotation Yrotation
			JOINT LeftElbow
			{
				OFFSET 0.000000 -0.243375 0.000000 
				CHANNELS 2 Zrotation Yrotation
				JOINT LeftWrist
				{
					OFFSET 0.000000 -0.264825 0.000000 
					CHANNELS 2 Zrotation Xrotation
					End Site
					{
						OFFSET 0.006600 -0.176220 -0.000990 
					}
				}
			}
		}
	}
	JOINT RightHip
	{
		OFFSET 0.052140 -0.069960 0.075570 
		CHANNELS 3 Zrotation Xrotation Yrotation
		JOINT RightKnee
		{
			OFFSET 0.000000 -0.402270 0.000000 
			CHANNELS 1 Zrotation
			JOINT RightAnkle
			{
				OFFSET 0.000000 -0.404085 0.000000 
				CHANNELS 3 Zrotation Xrotation Yrotation
				End Site
				{
					OFFSET 0.204105 -0.089430 0.008415 
				}
			}
		}
	}
	JOINT LeftHip
	{
		OFFSET 0.052140 -0.069960 -0.075570 
		CHANNELS 3 Zrotation Xrotation Yrotation
		JOINT LeftKnee
		{
			OFFSET 0.000000 -0.402270 0.000000 
			CHANNELS 1 Zrotation
			JOINT LeftAnkle
			{
				OFFSET 0.000000 -0.404085 0.000000 
				CHANNELS 3 Zrotation Xrotation Yrotation
				End Site
				{
					OFFSET 0.204105 -0.089430 -0.008415 
				}
			}
		}
	}
}
MOTION
Frames: 11
Frame Time: 0.02
0 0.95578 0 169.01095 0 3.05784 8.21511 -1.41206 0.05864 -28.15681 1.77737 4.12789 26.84015 -13.80656 -13.78353 8.54512 79.23188 -1.47114 3.03313 23.14525 5.8309 -14.5576 7.88341 -77.96815 -5.86526 0.77405 3.8394 1.58536 16.49263 -23.60499 11.84801 -9.5829 -13.29581 1.53383 -3.98964 -4.63531 -19.7241 10.12552 8.15724 12.88077
-0.00044 0.95571 -0.00031 169.11586 0 3.06141 8.26757 -1.36906 0.03328 -28.2501 1.75423 4.08501 26.92975 -13.80446 -13.86777 8.55544 79.21198 -1.47066 3.01286 23.22374 5.85587 -14.57951 7.90402 -77.893 -5.85373 0.76664 3.79956 1.58401 16.38325 -23.60254 11.87671 -9.61595 -13.29022 1.55604 -3.99119 -4.75809 -19.79913 10.14988 8.17043 12.89716
-0.00089 0.95563 -0.00063 169.22048 0 3.06484 8.31926 -1.32616 0.00788 -28.34223 1.7317 4.04255 27.01831 -13.80309 -13.95055 8.56619 79.19243 -1.47021 2.99251 23.30101 5.8804 -14.601 7.92465 -77.81828 -5.84239 0.75951 3.75986 1.58271 16.27457 -23.59994 11.9053 -9.64885 -13.2848 1.57852 -3.99272 -4.88054 -19.87434 10.17425 8.18368 12.91354
-0.00132 0.95555 -0.00094 169.32515 0 3.06782 8.36927 -1.28323 -0.01772 -28.43144 1.7109 4.00062 27.10445 -13.8037 -14.0301 8.57812 79.17413 -1.46987 2.97194 23.37522 5.90397 -14.62103 7.94522 -77.74415 -5.83164 0.75362 3.71992 1.58156 16.16698 -23.59586 11.93363 -9.68133 -13.27964 1.60204 -3.99393 -5.00287 -19.95058 10.1987 8.19724 12.92969
-0.0018 0.95547 -0.00127 169.42977 0 3.07323 8.42925 -1.24046 -0.04198 -28.53703 1.68035 3.95501 27.20435 -13.79276 -14.1289 8.58302 79.14922 -1.46891 2.95287 23.46687 5.93329 -14.64882 7.96575 -77.66642 -5.81771 0.74139 3.68076 1.57956 16.0529 -23.59859 11.96318 -9.71588 -13.27269 1.61975 -3.99653 -5.12579 -20.02085 10.22248 8.2091 12.94669
-0.00218 0.95539 -0.00155 169.53424 0 3.0735 8.46738 -1.19738 -0.06926 -28.60729 1.67085 3.9178 27.2744 -13.80697 -14.18543 8.60328 79.13831 -1.46929 2.93042 23.52073 5.94994 -14.66013 7.98658 -77.5967 -5.81058 0.74242 3.64033 1.57941 15.95311 -23.58761 11.99024 -9.74612 -13.26979 1.64992 -3.99637 -5.24738 -20.10401 10.24779 8.22458 12.96212
-0.00232 0.95533 -0.00169 169.64273 0 3.0591 8.45013 -1.15229 -0.10399 -28.58446 1.71816 3.8988 27.26745 -13.88763 -14.13479 8.66389 79.16752 -1.47333 2.89955 23.47591 5.93468 -14.62478 8.00647 -77.54521 -5.82202 0.78277 3.59197 1.58394 15.8875 -23.53104 12.01004 -9.76406 -13.27639 1.71518 -3.98703 -5.36827 -20.22365 10.27735 8.25063 12.97136
-0.00237 0.95527 -0.00178 169.75048 0 3.0396 8.41008 -1.1071 -0.14195 -28.52603 1.78709 3.88915 27.23013 -13.99436 -14.03962 8.74044 79.21068 -1.47869 2.8651 23.39274 5.9059 -14.57284 8.02685 -77.50236 -5.84029 0.83602 3.54297 1.59035 15.83709 -23.46189 12.02747 -9.77783 -13.28742 1.79294 -3.97522 -5.48741 -20.35629 10.30854 8.28032 12.97932
-0.00246 0.9552 -0.00188 169.85569 0 3.02271 8.37695 -1.06262 -0.17906 -28.47979 1.84701 3.87849 27.20215 -14.09119 -13.95858 8.81115 79.24649 -1.4835 2.83159 23.32225 5.88146 -14.52936 8.0484 -77.45813 -5.85567 0.88172 3.4972 1.59628 15.78327 -23.40352 12.04617 -9.79372 -13.29753 1.86467 -3.96551 -5.60555 -20.48255 10.33896 8.30798 12.98919
-0.00256 0.95514 -0.00203 169.9726 0 3.00455 8.35753 -1.01518 -0.21358 -28.44663 1.90325 3.85429 27.18979 -14.17968 -13.90345 8.87601 79.28635 -1.48823 2.80082 23.26818 5.8652 -14.48253 8.06473 -77.40358 -5.87044 0.93471 3.43944 1.60089 15.71525 -23.32412 12.0638 -9.80836 -13.30295 1.93798 -3.95155 -5.7312 -20.61069 10.36931 8.33705 12.99374
-0.00262 0.95507 -0.00206 170.0655 0 2.98787 8.30517 -0.97408 -0.25422 -28.38249 1.97259 3.86037 27.14168 -14.29189 -13.78359 8.95675 79.32137 -1.49326 2.7637 23.17532 5.82798 -14.43807 8.09121 -77.37207 -5.88772 0.97538 3.40597 1.60836 15.67975 -23.28515 12.08344 -9.82495 -13.31926 2.01082 -3.94602 -5.84086 -20.73811 10.40041 8.36426 13.00869
